<mxfile host="65bd71144e">
    <diagram id="Yai7lUoSEcwINirAfmOO" name="第 1 页">
        <mxGraphModel dx="697" dy="523" grid="1" gridSize="10" guides="1" tooltips="1" connect="1" arrows="1" fold="1" page="1" pageScale="1" pageWidth="2336" pageHeight="1654" math="0" shadow="0">
            <root>
                <mxCell id="0"/>
                <mxCell id="1" parent="0"/>
                <mxCell id="5" value="admin" style="shape=umlActor;verticalLabelPosition=bottom;verticalAlign=top;html=1;" vertex="1" parent="1">
                    <mxGeometry x="640" y="607" width="30" height="60" as="geometry"/>
                </mxCell>
                <mxCell id="6" value="share.customer" style="shape=umlFrame;whiteSpace=wrap;html=1;width=160;height=33;" vertex="1" parent="1">
                    <mxGeometry x="750" y="487" width="410" height="453" as="geometry"/>
                </mxCell>
                <mxCell id="7" value="Use Case" style="ellipse;whiteSpace=wrap;html=1;" vertex="1" parent="1">
                    <mxGeometry x="795" y="557" width="95" height="50" as="geometry"/>
                </mxCell>
                <mxCell id="8" value="" style="endArrow=open;endFill=1;endSize=12;html=1;entryX=0;entryY=0.5;entryDx=0;entryDy=0;exitX=0.5;exitY=0.5;exitDx=0;exitDy=0;exitPerimeter=0;" edge="1" parent="1" source="5" target="7">
                    <mxGeometry width="160" relative="1" as="geometry">
                        <mxPoint x="810" y="710" as="sourcePoint"/>
                        <mxPoint x="970" y="710" as="targetPoint"/>
                    </mxGeometry>
                </mxCell>
            </root>
        </mxGraphModel>
    </diagram>
</mxfile>